<svg xmlns="http://www.w3.org/2000/svg" width="94" height="28" fill="none">
  <path fill="#000000" d="M75.596 23.466H18.8L23.33 28l52.266-4.534zM24.066 5.101v.68c-1.076-.68-1.982-1.077-3.284-1.077-3.964 0-7.022 3.628-7.022 8.106 0 4.477 3.001 8.105 7.022 8.105 1.302 0 2.265-.397 3.284-1.077v.68h3.511V5.101h-3.51zm-3.34 12.13c-1.983 0-3.398-1.927-3.398-4.365 0-2.437 1.415-4.364 3.397-4.364 1.982 0 3.341 1.927 3.341 4.364.057 2.438-1.359 4.365-3.34 4.365zM52.096 5.101v9.069c0 1.7-1.189 3.117-2.888 3.117-1.698 0-2.888-1.417-2.888-3.117V5.101h-3.51v9.069c0 3.74 2.548 6.745 6.285 6.745 1.699 0 3.001-.964 3.001-.964v.567h3.511V5.101h-3.51zM84.713 20.575v-9.069c0-1.7 1.19-3.117 2.888-3.117 1.699 0 2.888 1.417 2.888 3.117v9.069H94v-9.069c0-3.74-2.548-6.745-6.286-6.745-1.698 0-3 .964-3 .964V5.1h-3.512v15.417h3.511v.057z"/>
  <path fill="#000000" d="M3.68 20.575v-6.008H6.23l4.473 5.951h4.587L9.853 13.32c1.699-1.19 2.775-3.174 2.775-5.441 0-3.685-3.001-6.632-6.626-6.632H0v19.271h3.68v.057zm0-15.644H6.06c1.642 0 3.001 1.36 3.001 3.004S7.701 10.94 6.06 10.94H3.681V4.931zM65.007 16.89c-.34.227-.736.397-1.189.397-.566 0-1.642-.453-1.642-1.87V8.785h3.001V5.101h-3.001V1.247h-3.51v3.854h-1.87v3.684h1.87v6.632c0 3.457 2.604 5.498 5.209 5.498.962 0 2.321-.34 3.397-.964l-2.265-3.06zM36.24 12.356l6.003-7.255h-4.87l-4.247 5.385V0H29.56v20.575h3.567v-6.348l5.21 6.348h4.87l-6.965-8.219z"/>
  <path fill="#000000" d="M73.105 4.704c-4.077 0-6.965 3.571-6.965 8.106 0 4.76 3.624 8.105 7.305 8.105 1.868 0 4.19-.624 6.172-3.458l-3.115-1.813c-2.378 3.514-6.398 1.757-6.851-1.814h10.08c.905-5.441-2.662-9.126-6.626-9.126zm3.058 6.122h-6.286c.736-3.57 5.606-3.798 6.286 0z"/>
</svg>
