<svg width="200" height="60" viewBox="0 0 200 60" fill="none" xmlns="http://www.w3.org/2000/svg">
<path d="M68.6439 29.5081H82.6096V24.5537H74.5479V20.307H81.6805V15.1987H74.5479V11.4444H82.6096V6.42847H68.6439V29.5081Z" fill="black"/>
<path d="M84.8636 29.5081H92.0562L96.6715 22.7381L101.287 29.5081H108.479L100.268 17.4759L107.76 6.42847H100.567L96.6715 12.183L92.7455 6.42847H85.5529L93.0452 17.4759L84.8636 29.5081Z" fill="black"/>
<path d="M130.797 17.9991C130.797 11.6291 125.762 6.42847 119.559 6.42847C113.355 6.42847 108.35 11.6291 108.35 17.9991C108.35 24.369 113.355 29.5081 119.559 29.5081C125.762 29.5081 130.797 24.369 130.797 17.9991ZM124.923 17.9683C124.923 20.984 122.526 23.4766 119.559 23.4766C116.622 23.4766 114.224 20.984 114.224 17.9683C114.224 14.9218 116.622 12.4599 119.559 12.4599C122.526 12.4599 124.923 14.9218 124.923 17.9683Z" fill="black"/>
<path d="M68.6439 59.0163H76.9754C83.179 59.0163 88.2138 53.8465 88.2138 47.4765C88.2138 41.1065 83.179 35.9367 76.9754 35.9367H68.6439V59.0163ZM74.5179 53.0464V42.122H77.0053C79.9423 42.122 82.3399 44.5838 82.3399 47.5688C82.3399 50.5845 79.9423 53.0464 77.0053 53.0464H74.5179Z" fill="black"/>
<path d="M90.7638 59.0163H104.729V54.0619H96.6677V49.8152H103.8V44.7069H96.6677V40.9526H104.729V35.9367H90.7638V59.0163Z" fill="black"/>
<path d="M117.89 59.0163H120.587L131.047 35.9059H125.173L119.239 49.0459L113.335 35.9059H107.401L117.89 59.0163Z" fill="black"/>
<path d="M133.341 59.0163H139.245V50.2153H146.377V59.0163H152.281V35.9367H146.377V44.153H139.245V35.9367H133.341V59.0163Z" fill="black"/>
<path d="M164.442 59.0163C169.327 59.0163 173.313 54.9851 173.313 49.9075V35.9367H167.379V49.8152C167.379 51.4769 166.06 52.831 164.442 52.831C162.823 52.831 161.505 51.4769 161.505 49.8152V35.9367H155.571V49.9075C155.571 54.9851 159.497 59.0163 164.442 59.0163Z" fill="black"/>
<path d="M176.615 59.0163H187.703C191.27 59.0163 194.297 55.9082 194.297 52.2463C194.297 50.1537 193.278 48.215 191.749 46.9533C192.618 45.8147 193.188 44.3684 193.188 42.799C193.188 39.1063 190.131 35.9367 186.535 35.9367H176.615V59.0163ZM182.519 44.9531V40.9526H185.366C186.445 40.9526 187.314 41.8451 187.314 42.9529C187.314 44.0607 186.445 44.9531 185.366 44.9531H182.519ZM182.519 54.0311V50.0306H186.475C187.494 50.0306 188.423 50.923 188.423 52.0309C188.423 53.1387 187.554 54.0311 186.475 54.0311H182.519Z" fill="black"/>
<path d="M4.99487 6.41089H56.1923V58.9811H4.99487V6.41089Z" fill="#FDD758"/>
<path d="M0 0H50.0148C50.6679 0 51.1974 0.529477 51.1974 1.18262V2.52462C51.1974 30.1641 28.7912 52.5703 1.15174 52.5703V52.5703C0.51565 52.5703 0 52.0546 0 51.4185V0Z" fill="#EE3B50"/>
</svg>
