<svg width="209" height="61" viewBox="0 0 209 61" fill="none" xmlns="http://www.w3.org/2000/svg">
<path d="M71.6593 30H86.2384V24.963H77.8226V20.6456H85.2686V15.4521H77.8226V11.6353H86.2384V6.53571H71.6593V30Z" fill="black"/>
<path d="M88.5915 30H96.1L100.918 23.1171L105.736 30H113.245L104.672 17.7673L112.494 6.53571H104.985L100.918 12.3861L96.8196 6.53571H89.311L97.1325 17.7673L88.5915 30Z" fill="black"/>
<path d="M136.543 18.2991C136.543 11.823 131.287 6.53571 124.811 6.53571C118.334 6.53571 113.11 11.823 113.11 18.2991C113.11 24.7753 118.334 30 124.811 30C131.287 30 136.543 24.7753 136.543 18.2991ZM130.411 18.2679C130.411 21.3339 127.908 23.868 124.811 23.868C121.745 23.868 119.242 21.3339 119.242 18.2679C119.242 15.1706 121.745 12.6677 124.811 12.6677C127.908 12.6677 130.411 15.1706 130.411 18.2679Z" fill="black"/>
<path d="M71.6593 60H80.3567C86.8329 60 92.0889 54.744 92.0889 48.2678C92.0889 41.7917 86.8329 36.5357 80.3567 36.5357H71.6593V60ZM77.7913 53.9306V42.8241H80.388C83.454 42.8241 85.9569 45.327 85.9569 48.3617C85.9569 51.4277 83.454 53.9306 80.388 53.9306H77.7913Z" fill="black"/>
<path d="M94.7508 60H109.33V54.963H100.914V50.6456H108.36V45.4521H100.914V41.6353H109.33V36.5357H94.7508V60Z" fill="black"/>
<path d="M123.069 60H125.884L136.803 36.5044H130.671L124.477 49.8634L118.313 36.5044H112.119L123.069 60Z" fill="black"/>
<path d="M139.198 60H145.362V51.0523H152.808V60H158.971V36.5357H152.808V44.889H145.362V36.5357H139.198V60Z" fill="black"/>
<path d="M171.665 60C176.765 60 180.926 55.9016 180.926 50.7394V36.5357H174.731V50.6456C174.731 52.335 173.355 53.7116 171.665 53.7116C169.976 53.7116 168.599 52.335 168.599 50.6456V36.5357H162.405V50.7394C162.405 55.9016 166.503 60 171.665 60Z" fill="black"/>
<path d="M184.373 60H195.949C199.672 60 202.832 56.8401 202.832 53.1171C202.832 50.9897 201.768 49.0187 200.172 47.736C201.08 46.5784 201.674 45.108 201.674 43.5124C201.674 39.7581 198.483 36.5357 194.729 36.5357H184.373V60ZM190.536 45.7024V41.6353H193.509C194.635 41.6353 195.542 42.5426 195.542 43.6688C195.542 44.7951 194.635 45.7024 193.509 45.7024H190.536ZM190.536 54.9317V50.8646H194.666C195.73 50.8646 196.7 51.7719 196.7 52.8981C196.7 54.0244 195.792 54.9317 194.666 54.9317H190.536Z" fill="black"/>
<path d="M5.21429 6.51785H55.6607C57.3176 6.51785 58.6607 7.861 58.6607 9.51785V59.9643H8.2143C6.55744 59.9643 5.21429 58.6211 5.21429 56.9643V6.51785Z" fill="#D9B12E"/>
<path d="M0 0H52.2441C52.9081 0 53.4464 0.538302 53.4464 1.20233V1.20233C53.4464 30.0559 30.0559 53.4464 1.20233 53.4464V53.4464C0.538299 53.4464 0 52.9081 0 52.2441V0Z" fill="#D1651C"/>
</svg>
