<svg width="151" height="67" viewBox="0 0 151 67" fill="none" xmlns="http://www.w3.org/2000/svg">
<path d="M77.2727 33.228H93.1866V27.5577H84.0003V22.6974H92.128V16.851H84.0003V12.5542H93.1866V6.81348H77.2727V33.228Z" fill="black"/>
<path d="M98.0278 33.228H106.224L111.483 25.4797L116.742 33.228H124.938L115.581 19.4572L124.118 6.81348H115.922L111.483 13.3995L107.009 6.81348H98.8133L107.351 19.4572L98.0278 33.228Z" fill="black"/>
<path d="M150.369 20.0559C150.369 12.7655 144.632 6.81348 137.563 6.81348C130.494 6.81348 124.791 12.7655 124.791 20.0559C124.791 27.3463 130.494 33.228 137.563 33.228C144.632 33.228 150.369 27.3463 150.369 20.0559ZM143.676 20.0207C143.676 23.4722 140.944 26.325 137.563 26.325C134.216 26.325 131.484 23.4722 131.484 20.0207C131.484 16.534 134.216 13.7165 137.563 13.7165C140.944 13.7165 143.676 16.534 143.676 20.0207Z" fill="black"/>
<path d="M77.2727 66.9999H86.7664C93.8355 66.9999 99.5727 61.0831 99.5727 53.7927C99.5727 46.5023 93.8355 40.5854 86.7664 40.5854H77.2727V66.9999ZM83.9661 60.1674V47.6645H86.8006C90.1473 47.6645 92.8793 50.4821 92.8793 53.8983C92.8793 57.3498 90.1473 60.1674 86.8006 60.1674H83.9661Z" fill="black"/>
<path d="M103.615 66.9999H119.529V61.3296H110.342V56.4693H118.47V50.6229H110.342V46.3262H119.529V40.5854H103.615V66.9999Z" fill="black"/>
<path d="M135.662 66.9999H138.735L150.653 40.5502H143.96L137.198 55.5889L130.471 40.5502H123.709L135.662 66.9999Z" fill="black"/>
<path d="M5.65656 6.81354H63.6364V66.9999H5.65656V6.81354Z" fill="#FDD758"/>
<path d="M0 0H56.6364C57.3783 0 57.9798 0.601463 57.9798 1.3434V3.04206C57.9798 34.3431 32.6053 59.7175 1.30431 59.7175V59.7175C0.583961 59.7175 0 59.1336 0 58.4132V0Z" fill="#EE3B50"/>
</svg>
